<svg width="18" height="18" viewBox="0 0 18 18" fill="none" xmlns="http://www.w3.org/2000/svg">
<path d="M9 9.75C9.79565 9.75 10.5587 9.43393 11.1213 8.87132C11.6839 8.30871 12 7.54565 12 6.75C12 5.95435 11.6839 5.19129 11.1213 4.62868C10.5587 4.06607 9.79565 3.75 9 3.75C8.20435 3.75 7.44129 4.06607 6.87868 4.62868C6.31607 5.19129 6 5.95435 6 6.75C6 7.54565 6.31607 8.30871 6.87868 8.87132C7.44129 9.43393 8.20435 9.75 9 9.75ZM9 9.75C7.80653 9.75 6.66193 10.2241 5.81802 11.068C4.97411 11.9119 4.5 13.0565 4.5 14.25V16.5M9 9.75C10.1935 9.75 11.3381 10.2241 12.182 11.068C13.0259 11.9119 13.5 13.0565 13.5 14.25V16.5M9.75 3.75C10.053 2.502 11.2612 1.5 12.75 1.5C14.379 1.5 15.735 2.8425 15.75 4.5C15.735 6.1575 14.379 7.5 12.75 7.5M12.75 7.5H12M12.75 7.5C15.216 7.5 17.25 9.5145 17.25 12V13.5M8.25 3.75C7.947 2.502 6.73875 1.5 5.25 1.5C3.621 1.5 2.265 2.8425 2.25 4.5C2.265 6.1575 3.621 7.5 5.25 7.5M5.25 7.5H6M5.25 7.5C2.784 7.5 0.75 9.5145 0.75 12V13.5" stroke="black"/>
</svg>
