<svg width="18" height="18" viewBox="0 0 18 18" fill="none" xmlns="http://www.w3.org/2000/svg">
<path d="M9 16.5V4.5C9 3.0855 9 2.379 8.5605 1.9395C8.121 1.5 7.4145 1.5 6 1.5H4.5C3.0855 1.5 2.379 1.5 1.9395 1.9395C1.5 2.379 1.5 3.0855 1.5 4.5V13.5C1.5 14.9145 1.5 15.621 1.9395 16.0605C2.379 16.5 3.0855 16.5 4.5 16.5H9ZM9 16.5H13.5C14.9145 16.5 15.621 16.5 16.0605 16.0605C16.5 15.621 16.5 14.9145 16.5 13.5V9C16.5 7.5855 16.5 6.879 16.0605 6.4395C15.621 6 14.9145 6 13.5 6H9" stroke="black"/>
<path d="M13.875 12H11.625M13.875 9H11.625M6.375 10.5H4.125M6.375 7.5H4.125M6.375 4.5H4.125" stroke="black" stroke-linecap="round"/>
</svg>
