<svg width="18" height="18" viewBox="0 0 18 18" fill="none" xmlns="http://www.w3.org/2000/svg">
<g clip-path="url(#clip0_250_682)">
<path d="M9.01796 17.1013C1.97996 17.1013 -0.243043 14.913 1.03881 10.9556H16.9971C18.279 14.913 16.056 17.1013 9.01796 17.1013Z" stroke="black" stroke-linejoin="round"/>
<path d="M5.43848 5.50156C6.85919 7.3337 7.3619 9.17999 7.56376 10.9208" stroke="black" stroke-linecap="round" stroke-linejoin="round"/>
<path d="M1.75871 10.9478C0.987283 9.30856 1.23157 7.41728 2.30257 6.48256C2.13466 6.24859 1.98835 5.99986 1.86543 5.73942C0.967997 3.83399 1.48614 1.70228 3.02257 0.977134C4.56285 0.251991 6.53771 1.20856 7.43514 3.11399C7.56028 3.38228 7.65885 3.65228 7.73085 3.92399C9.00628 3.71442 10.4206 4.47171 11.2473 5.84356L11.4877 6.31028" stroke="black" stroke-linecap="round" stroke-linejoin="round"/>
<path d="M9.84986 10.7859H16.6024C16.7079 10.4053 16.761 9.98186 16.7619 9.51557C16.7619 7.25272 15.489 5.97986 13.2261 5.97986C10.9633 5.97986 9.69043 7.25272 9.69043 9.51557C9.69043 9.98186 9.74357 10.4053 9.84986 10.7859Z" stroke="black" stroke-linecap="round" stroke-linejoin="round"/>
</g>
<defs>
<clipPath id="clip0_250_682">
<rect width="18" height="18" fill="white"/>
</clipPath>
</defs>
</svg>
