<svg width="18" height="18" viewBox="0 0 18 18" fill="none" xmlns="http://www.w3.org/2000/svg">
<g clip-path="url(#clip0_250_690)">
<path d="M6.0825 11.9175L11.9167 6.0825M1.5 16.5L2.886 15.114M16.5 1.5L15.114 2.886M1.575 7.4085L10.5908 16.425L10.458 16.557L9.15525 16.401C7.84275 16.2435 6.51375 16.5045 5.33175 17.0955L5.02275 17.25L0.75 12.9772L0.9045 12.6683C1.4955 11.4863 1.7565 10.1573 1.599 8.84475L1.443 7.542L1.575 7.4085ZM7.41 1.5765L16.425 10.5915L16.5577 10.4587L16.4017 9.156C16.2442 7.8435 16.5053 6.5145 17.0963 5.3325L17.25 5.02275L12.9772 0.75L12.6675 0.9045C11.4862 1.4955 10.1565 1.7565 8.84475 1.599L7.54125 1.443L7.41 1.5765Z" stroke="#023051"/>
</g>
<defs>
<clipPath id="clip0_250_690">
<rect width="18" height="18" fill="white"/>
</clipPath>
</defs>
</svg>
