<svg width="18" height="18" viewBox="0 0 18 18" fill="none" xmlns="http://www.w3.org/2000/svg">
<path d="M12.9375 5.25C12.9375 5.10082 12.8782 4.95774 12.7727 4.85225C12.6673 4.74676 12.5242 4.6875 12.375 4.6875C12.2258 4.6875 12.0827 4.74676 11.9773 4.85225C11.8718 4.95774 11.8125 5.10082 11.8125 5.25V6.1875H10.875C10.7258 6.1875 10.5827 6.24676 10.4773 6.35225C10.3718 6.45774 10.3125 6.60082 10.3125 6.75C10.3125 6.89918 10.3718 7.04226 10.4773 7.14775C10.5827 7.25324 10.7258 7.3125 10.875 7.3125H11.8125V8.25C11.8125 8.39918 11.8718 8.54226 11.9773 8.64775C12.0827 8.75324 12.2258 8.8125 12.375 8.8125C12.5242 8.8125 12.6673 8.75324 12.7727 8.64775C12.8782 8.54226 12.9375 8.39918 12.9375 8.25V7.3125H13.875C14.0242 7.3125 14.1673 7.25324 14.2727 7.14775C14.3782 7.04226 14.4375 6.89918 14.4375 6.75C14.4375 6.60082 14.3782 6.45774 14.2727 6.35225C14.1673 6.24676 14.0242 6.1875 13.875 6.1875H12.9375V5.25Z" fill="black"/>
<path fill-rule="evenodd" clip-rule="evenodd" d="M17.0625 6.98849C17.0625 4.49399 15.951 2.63249 14.22 1.95524C12.6187 1.32749 10.6965 1.79699 9 3.38474C7.3035 1.79699 5.38125 1.32749 3.78 1.95524C2.049 2.63249 0.9375 4.49399 0.9375 6.98774C0.9375 8.57699 1.785 10.14 2.84025 11.4855C3.90675 12.8452 5.24775 14.0625 6.36675 14.9707L6.46725 15.0532C7.36725 15.7845 8.01825 16.3132 9 16.3132C9.9825 16.3132 10.632 15.7845 11.5328 15.0532L11.6332 14.9707C12.7522 14.0632 14.0932 12.8452 15.1597 11.4855C16.215 10.14 17.0625 8.57699 17.0625 6.98849ZM9.411 4.56524C10.995 2.87099 12.6367 2.54324 13.8105 3.00224C14.9865 3.46274 15.9375 4.80974 15.9375 6.98849C15.9375 8.19674 15.2775 9.51149 14.274 10.791C13.281 12.0585 12.012 13.215 10.9245 14.0977C9.87975 14.9452 9.54225 15.1875 9 15.1875C8.45775 15.1875 8.12025 14.9452 7.0755 14.097C5.988 13.215 4.719 12.0577 3.726 10.7917C2.72175 9.51149 2.0625 8.19674 2.0625 6.98849C2.0625 4.80974 3.0135 3.46349 4.1895 3.00224C5.36325 2.54324 7.005 2.87099 8.589 4.56524C8.64162 4.62156 8.70526 4.66646 8.77596 4.69716C8.84666 4.72786 8.92292 4.7437 9 4.7437C9.07708 4.7437 9.15334 4.72786 9.22404 4.69716C9.29474 4.66646 9.35838 4.62156 9.411 4.56524Z" fill="black"/>
</svg>
