<svg width="18" height="18" viewBox="0 0 18 18" fill="none" xmlns="http://www.w3.org/2000/svg">
<path d="M6.75 2.8125C6.75 3.40924 6.98705 3.98153 7.40901 4.40349C7.83097 4.82545 8.40326 5.0625 9 5.0625C9.59674 5.0625 10.169 4.82545 10.591 4.40349C11.0129 3.98153 11.25 3.40924 11.25 2.8125M6.75 2.8125C6.75 2.21576 6.98705 1.64347 7.40901 1.22151C7.83097 0.799553 8.40326 0.5625 9 0.5625C9.59674 0.5625 10.169 0.799553 10.591 1.22151C11.0129 1.64347 11.25 2.21576 11.25 2.8125M6.75 2.8125C6.75 2.8125 6.75 5.625 5.0625 5.625M11.25 2.8125C11.25 2.8125 11.25 5.625 12.9375 5.625M10.6875 17.4375L11.25 11.8125H12.9375V10.125C12.9375 9.47274 12.7756 8.83069 12.4661 8.25652C12.1566 7.68235 11.7094 7.19406 11.1645 6.8355L9 10.125L6.8355 6.8355C6.29063 7.19406 5.84338 7.68235 5.53391 8.25652C5.22444 8.83069 5.06245 9.47274 5.0625 10.125V11.8125H6.75L7.3125 17.4375H10.6875Z" stroke="black" stroke-linecap="round" stroke-linejoin="round"/>
</svg>
