<svg width="32" height="32" viewBox="0 0 32 32" fill="none" xmlns="http://www.w3.org/2000/svg">
<path d="M23 9.33337C23 9.06816 22.8946 8.8138 22.7071 8.62627C22.5196 8.43873 22.2652 8.33337 22 8.33337C21.7348 8.33337 21.4804 8.43873 21.2929 8.62627C21.1054 8.8138 21 9.06816 21 9.33337V11H19.3333C19.0681 11 18.8138 11.1054 18.6262 11.2929C18.4387 11.4805 18.3333 11.7348 18.3333 12C18.3333 12.2653 18.4387 12.5196 18.6262 12.7071C18.8138 12.8947 19.0681 13 19.3333 13H21V14.6667C21 14.9319 21.1054 15.1863 21.2929 15.3738C21.4804 15.5614 21.7348 15.6667 22 15.6667C22.2652 15.6667 22.5196 15.5614 22.7071 15.3738C22.8946 15.1863 23 14.9319 23 14.6667V13H24.6667C24.9319 13 25.1862 12.8947 25.3738 12.7071C25.5613 12.5196 25.6667 12.2653 25.6667 12C25.6667 11.7348 25.5613 11.4805 25.3738 11.2929C25.1862 11.1054 24.9319 11 24.6667 11H23V9.33337Z" fill="black"/>
<path fill-rule="evenodd" clip-rule="evenodd" d="M30.3333 12.424C30.3333 7.98937 28.3573 4.68003 25.28 3.47603C22.4333 2.36003 19.016 3.1947 16 6.01737C12.984 3.1947 9.56666 2.36003 6.72 3.47603C3.64266 4.68003 1.66666 7.98937 1.66666 12.4227C1.66666 15.248 3.17333 18.0267 5.04933 20.4187C6.94533 22.836 9.32933 25 11.3187 26.6147L11.4973 26.7614C13.0973 28.0614 14.2547 29.0014 16 29.0014C17.7467 29.0014 18.9013 28.0614 20.5027 26.7614L20.6813 26.6147C22.6707 25.0014 25.0547 22.836 26.9507 20.4187C28.8267 18.0267 30.3333 15.248 30.3333 12.424ZM16.7307 8.11603C19.5467 5.10403 22.4653 4.52137 24.552 5.33737C26.6427 6.15603 28.3333 8.5507 28.3333 12.424C28.3333 14.572 27.16 16.9094 25.376 19.184C23.6107 21.4374 21.3547 23.4934 19.4213 25.0627C17.564 26.5694 16.964 27 16 27C15.036 27 14.436 26.5694 12.5787 25.0614C10.6453 23.4934 8.38933 21.436 6.624 19.1854C4.83866 16.9094 3.66666 14.572 3.66666 12.424C3.66666 8.5507 5.35733 6.15737 7.448 5.33737C9.53466 4.52137 12.4533 5.10403 15.2693 8.11603C15.3629 8.21616 15.476 8.29598 15.6017 8.35056C15.7274 8.40514 15.863 8.4333 16 8.4333C16.137 8.4333 16.2726 8.40514 16.3983 8.35056C16.524 8.29598 16.6371 8.21616 16.7307 8.11603Z" fill="black"/>
</svg>
