<svg width="32" height="32" viewBox="0 0 32 32" fill="none" xmlns="http://www.w3.org/2000/svg">
<path d="M5.27334 12.872C5.79372 12.872 6.30901 12.7695 6.78978 12.5704C7.27056 12.3712 7.7074 12.0793 8.07536 11.7114C8.44333 11.3434 8.73522 10.9066 8.93436 10.4258C9.1335 9.94501 9.236 9.42973 9.236 8.90934C9.236 8.38896 9.1335 7.87367 8.93436 7.39289C8.73522 6.91212 8.44333 6.47528 8.07536 6.10731C7.7074 5.73934 7.27056 5.44746 6.78978 5.24831C6.30901 5.04917 5.79372 4.94667 5.27334 4.94667C4.22237 4.94667 3.21445 5.36417 2.47131 6.10731C1.72816 6.85046 1.31067 7.85838 1.31067 8.90934C1.31067 9.96031 1.72816 10.9682 2.47131 11.7114C3.21445 12.4545 4.22237 12.872 5.27334 12.872ZM22.1827 16.776L29.7693 9.18934C30.752 8.20667 31.0333 6.66001 30.1907 5.53601C29.2067 4.13201 27.1 3.99067 25.976 5.11467L18.9507 12.14H12.348C10.8588 12.1442 9.43177 12.7377 8.37873 13.7907C7.32569 14.8438 6.73222 16.2708 6.728 17.76V25.0653C6.728 26.3293 7.57067 27.4533 8.83467 27.5947C10.3813 27.8747 11.6453 26.6107 11.6453 25.2053V19.8667H16.5627V23.384C16.5627 25.7733 18.3893 27.5987 20.776 27.5987H24.2893C25.6947 27.5987 26.9587 26.616 27.24 25.212C27.52 23.3853 26.116 21.98 24.4293 21.98H22.1827V16.776Z" stroke="black" stroke-width="1.5" stroke-miterlimit="10" stroke-linecap="round" stroke-linejoin="round"/>
</svg>
