<svg width="32" height="32" viewBox="0 0 32 32" fill="none" xmlns="http://www.w3.org/2000/svg">
<path d="M12 5C12 6.06087 12.4214 7.07828 13.1716 7.82843C13.9217 8.57857 14.9391 9 16 9C17.0609 9 18.0783 8.57857 18.8284 7.82843C19.5786 7.07828 20 6.06087 20 5M12 5C12 3.93913 12.4214 2.92172 13.1716 2.17157C13.9217 1.42143 14.9391 1 16 1C17.0609 1 18.0783 1.42143 18.8284 2.17157C19.5786 2.92172 20 3.93913 20 5M12 5C12 5 12 10 9 10M20 5C20 5 20 10 23 10M19 31L20 21H23V18C23.0001 16.8404 22.7121 15.699 22.1619 14.6783C21.6118 13.6575 20.8166 12.7894 19.848 12.152L16 18L12.152 12.152C11.1834 12.7894 10.3882 13.6575 9.83806 14.6783C9.28789 15.699 8.99991 16.8404 9 18V21H12L13 31H19Z" stroke="black" stroke-width="1.5" stroke-linecap="round" stroke-linejoin="round"/>
</svg>
